<svg width="165" height="178" viewBox="0 0 165 178" fill="none" xmlns="http://www.w3.org/2000/svg">
<g clip-path="url(#clip0_127_1596)">
<path d="M165 175.535V166.054C165 164.693 163.789 163.589 162.294 163.589C112.063 163.589 61.831 163.589 11.5993 163.589C10.8081 163.589 10.0537 163.906 9.54039 164.452L0.655118 173.933C-0.84514 175.532 0.402712 177.997 2.71407 177.997H162.297C163.792 177.997 165.003 176.893 165.003 175.532L165 175.535Z" fill="black"/>
<path d="M162.294 138.783H34.8548C34.0635 138.783 33.3091 139.1 32.7958 139.646L23.9928 149.037C22.4925 150.636 23.7404 153.101 26.0517 153.101H162.294C163.789 153.101 165 151.997 165 150.636V141.245C165 139.884 163.789 138.78 162.294 138.78V138.783Z" fill="black"/>
<path d="M162.294 113.881H58.1953C57.404 113.881 56.6496 114.198 56.1363 114.744L47.3389 124.129C45.8387 125.728 47.0865 128.193 49.3979 128.193H162.294C163.789 128.193 165 127.089 165 125.728V116.343C165 114.982 163.789 113.878 162.294 113.878V113.881Z" fill="black"/>
<path d="M162.294 88.9702H81.5471C80.7559 88.9702 80.0015 89.2872 79.4882 89.8334L70.6795 99.2294C69.1792 100.828 70.4271 103.293 72.7384 103.293H162.294C163.789 103.293 165 102.19 165 100.828V91.4324C165 90.0712 163.789 88.9674 162.294 88.9674V88.9702Z" fill="black"/>
<path d="M162.294 64.0965H104.865C104.074 64.0965 103.319 64.4134 102.806 64.9596L94.0228 74.3302C92.5225 75.9292 93.7704 78.3942 96.0817 78.3942H162.294C163.789 78.3942 165 77.2905 165 75.9292V66.5587C165 65.1974 163.789 64.0936 162.294 64.0936V64.0965Z" fill="black"/>
<path d="M162.294 39.2028H128.2C127.408 39.2028 126.654 39.5198 126.141 40.066L117.326 49.4704C115.826 51.0694 117.074 53.5345 119.385 53.5345H162.294C163.789 53.5345 165 52.4307 165 51.0694V41.665C165 40.3037 163.789 39.2 162.294 39.2V39.2028Z" fill="black"/>
<path d="M162.294 16.7968H151.537C150.746 16.7968 149.992 17.1137 149.478 17.66L140.658 27.0673C139.158 28.6663 140.406 31.1313 142.717 31.1313H162.294C163.789 31.1313 165 30.0276 165 28.6663V19.259C165 17.8977 163.789 16.7939 162.294 16.7939V16.7968Z" fill="black"/>
<path d="M157.088 10.7431H163.894C164.504 10.7431 165 10.2506 165 9.63932V1.1037C165 0.0593897 163.681 -0.399089 163.032 0.415984L156.225 8.95161C155.65 9.67328 156.166 10.7402 157.09 10.7402L157.088 10.7431Z" fill="black"/>
</g>
<defs>
<clipPath id="clip0_127_1596">
<rect width="165" height="178" fill="white"/>
</clipPath>
</defs>
</svg>
