<svg width="243" height="73" viewBox="0 0 243 73" fill="none" xmlns="http://www.w3.org/2000/svg">
<g filter="url(#filter0_d_1521_156)">
<path d="M82.8375 4.66458H71.7911C71.0865 4.66458 70.5157 5.23047 70.5157 5.92894V8.81011C70.5157 9.50858 71.0865 10.0745 71.7911 10.0745H81.722C82.4265 10.0745 82.9974 10.6404 82.9974 11.3388V13.2353C82.9974 13.9338 82.4265 14.4997 81.722 14.4997H71.7911C71.0865 14.4997 70.5157 15.0656 70.5157 15.7641V19.7851C70.5157 20.4836 71.0865 21.0494 71.7911 21.0494H83.4638C84.1684 21.0494 84.7392 21.6153 84.7392 22.3138V24.3655C84.7392 25.064 84.1684 25.6299 83.4638 25.6299H66.223C65.6962 25.6299 65.2689 25.2063 65.2689 24.684V1.10111C65.2689 0.57888 65.6962 0.155273 66.223 0.155273H82.8375C83.5421 0.155273 84.113 0.72116 84.113 1.41963V3.40185C84.113 4.10031 83.5421 4.6662 82.8375 4.6662V4.66458Z" fill="white"/>
<path d="M100.111 6.79065H102.69C103.567 6.79065 104.179 7.65403 103.88 8.47214L97.9337 24.7956C97.7526 25.2935 97.2764 25.625 96.7431 25.625H93.2854C92.7505 25.625 92.2742 25.2919 92.0932 24.7939L86.1875 8.47053C85.8923 7.65241 86.5023 6.79227 87.3797 6.79227H90.1997C90.7672 6.79227 91.2647 7.16575 91.418 7.70577L93.9085 16.4528C94.2542 17.6686 95.9896 17.6735 96.3435 16.4592L98.8943 7.6993C99.0509 7.16252 99.5467 6.79227 100.111 6.79227V6.79065Z" fill="white"/>
<path d="M118.407 7.17224C119.733 7.76076 120.827 8.68882 121.69 9.95802C122.468 11.0769 122.974 12.3752 123.204 13.8513C123.313 14.5546 123.368 15.5102 123.373 16.7179C123.375 17.1981 122.984 17.5894 122.501 17.5894H110.499C109.954 17.5894 109.543 18.0793 109.639 18.6096C109.882 19.9645 110.508 20.9492 111.518 21.5636C112.276 22.0357 113.19 22.2717 114.256 22.2717C115.388 22.2717 116.308 21.9839 117.014 21.4083C117.3 21.1788 117.559 20.8829 117.795 20.5207C117.959 20.2701 118.234 20.1117 118.536 20.1117H121.977C122.59 20.1117 123.026 20.7277 122.791 21.2903C122.486 22.0243 121.977 22.7665 121.266 23.5151C119.563 25.3469 117.182 26.262 114.118 26.262C111.59 26.262 109.359 25.4892 107.426 23.9451C105.493 22.4011 104.526 19.8869 104.526 16.4043C104.526 13.1415 105.399 10.6403 107.144 8.89901C108.889 7.15769 111.153 6.28784 113.938 6.28784C115.592 6.28784 117.081 6.5821 118.407 7.17063V7.17224ZM110.975 11.4261C110.502 11.9095 110.148 12.5077 109.911 13.2224C109.729 13.7753 110.159 14.3412 110.746 14.3412H117.19C117.769 14.3412 118.182 13.7931 118.03 13.2386C117.82 12.4609 117.438 11.8368 116.885 11.3647C116.093 10.6872 115.111 10.3493 113.938 10.3493C112.663 10.3493 111.674 10.7082 110.973 11.4261H110.975Z" fill="white"/>
<path d="M136.861 6.35089C136.889 6.35412 136.93 6.35574 136.985 6.36059C137.155 6.37191 137.289 6.51095 137.289 6.6791V11.072C137.289 11.2596 137.126 11.4051 136.936 11.3889C136.762 11.3727 136.6 11.3614 136.452 11.3549C136.209 11.3436 136.01 11.3372 135.86 11.3372C133.86 11.3372 132.52 11.9823 131.833 13.2725C131.45 13.9984 131.257 15.1157 131.257 16.6242V25.3081C131.257 25.4843 131.114 25.6266 130.936 25.6266H126.577C126.399 25.6266 126.255 25.4843 126.255 25.3081V7.10918C126.255 6.93294 126.399 6.79066 126.577 6.79066H130.675C130.853 6.79066 130.996 6.93294 130.996 7.10918V8.98307C130.996 9.29835 131.407 9.41961 131.585 9.1593C132.11 8.39131 132.582 7.83674 133.001 7.49883C133.931 6.72761 135.139 6.34119 136.626 6.34119C136.719 6.34119 136.798 6.34442 136.861 6.34927V6.35089Z" fill="white"/>
<path d="M141.377 29.8595C141.377 29.5215 141.664 29.2515 142.005 29.2709C142.493 29.2936 142.958 29.2774 143.4 29.2192C143.842 29.161 144.214 29.03 144.515 28.8215C144.806 28.6258 145.076 28.2168 145.326 27.5943C145.504 27.1513 145.61 26.8312 145.642 26.6339C145.659 26.5417 145.646 26.4464 145.615 26.3574L138.946 7.57484C138.81 7.19165 139.097 6.78906 139.507 6.78906H143.749C144.013 6.78906 144.245 6.96044 144.32 7.21105L147.756 18.718C147.926 19.2855 148.738 19.279 148.899 18.7099L152.143 7.21914C152.215 6.9653 152.45 6.78906 152.716 6.78906H156.708C157.118 6.78906 157.405 7.19003 157.269 7.57322L151.031 25.313C149.772 28.8845 148.777 31.0979 148.043 31.9565C147.311 32.815 145.845 33.2435 143.646 33.2435C143.204 33.2435 142.849 33.2402 142.581 33.2354C142.418 33.2321 142.204 33.2224 141.94 33.2079C141.625 33.1901 141.377 32.9314 141.377 32.6194V29.8578V29.8595Z" fill="white"/>
<path d="M158.958 10.0032V7.43088C158.958 7.17219 159.168 6.96362 159.429 6.96362H161.135C161.396 6.96362 161.606 6.75505 161.606 6.49636V2.17783C161.606 1.91914 161.817 1.71057 162.078 1.71057H166.051C166.311 1.71057 166.522 1.91914 166.522 2.17783V6.49636C166.522 6.75505 166.732 6.96362 166.993 6.96362H169.136C169.397 6.96362 169.608 7.17219 169.608 7.43088V10.0032C169.608 10.2619 169.397 10.4705 169.136 10.4705H166.993C166.732 10.4705 166.522 10.6791 166.522 10.9378V20.4236C166.522 21.1965 166.621 21.6767 166.819 21.8658C167.016 22.055 167.621 22.1504 168.631 22.1504C168.782 22.1504 168.942 22.1472 169.11 22.1423C169.112 22.1423 169.113 22.1423 169.115 22.1423C169.383 22.1326 169.608 22.3428 169.608 22.6096V25.3469C169.608 25.5975 169.407 25.8044 169.154 25.8141L167.256 25.8836C164.909 25.9645 163.304 25.5619 162.445 24.6743C161.887 24.11 161.608 23.2401 161.608 22.0647V10.9378C161.608 10.6791 161.397 10.4705 161.136 10.4705H159.431C159.17 10.4705 158.959 10.2619 158.959 10.0032H158.958Z" fill="white"/>
<path d="M186.544 6.76319C187.724 7.19326 188.749 7.99035 189.435 9.03644C189.836 9.64759 190.086 10.2749 190.187 10.9168C190.303 11.6605 190.36 12.8731 190.36 14.5563V25.3065C190.36 25.4827 190.216 25.625 190.039 25.625H185.609C185.431 25.625 185.288 25.4827 185.288 25.3065V14.1553C185.288 13.1399 185.115 12.3218 184.769 11.6993C184.319 10.823 183.466 10.3849 182.208 10.3849C180.951 10.3849 179.915 10.8198 179.24 11.6913C178.565 12.5627 178.229 13.8044 178.229 15.4196V25.3081C178.229 25.4843 178.085 25.6266 177.908 25.6266H173.582C173.405 25.6266 173.261 25.4843 173.261 25.3081V0.561067C173.261 0.384834 173.405 0.242554 173.582 0.242554H177.908C178.085 0.242554 178.229 0.384834 178.229 0.561067V8.2539C178.229 8.54977 178.604 8.68882 178.793 8.46247C179.372 7.76885 180.013 7.26117 180.718 6.93942C181.66 6.50773 182.652 6.29108 183.694 6.29108C184.736 6.29108 185.676 6.44791 186.542 6.76319H186.544Z" fill="white"/>
<path d="M197.107 4.54488H194.287C193.676 4.54488 193.178 4.05337 193.178 3.44544V1.09944C193.178 0.49313 193.674 0 194.287 0H197.107C197.719 0 198.216 0.491513 198.216 1.09944V3.44544C198.216 4.05175 197.72 4.54488 197.107 4.54488ZM194.287 6.79064H197.107C197.719 6.79064 198.216 7.28216 198.216 7.89008V24.5272C198.216 25.1335 197.72 25.6266 197.107 25.6266H194.287C193.676 25.6266 193.178 25.1351 193.178 24.5272V7.89008C193.178 7.28377 193.674 6.79064 194.287 6.79064Z" fill="white"/>
<path d="M216.424 7.87067C217.669 8.88927 218.29 10.5805 218.29 12.9426V24.9249C218.29 25.3113 217.974 25.625 217.584 25.625H213.908C213.518 25.625 213.201 25.3113 213.201 24.9249V14.1698C213.201 13.1787 213.069 12.4188 212.803 11.8885C212.319 10.9216 211.396 10.4366 210.036 10.4366C208.362 10.4366 207.216 11.1447 206.593 12.5611C206.27 13.3097 206.108 14.2668 206.108 15.4293V24.9233C206.108 25.3097 205.792 25.6234 205.402 25.6234H201.847C201.457 25.6234 201.141 25.3097 201.141 24.9233V7.52629C201.141 7.13987 201.457 6.8262 201.847 6.8262H205.244C205.634 6.8262 205.95 7.13987 205.95 7.52629C205.95 8.15846 206.727 8.46404 207.169 8.0081C207.368 7.80276 207.563 7.62653 207.756 7.48263C208.773 6.72273 210.063 6.34277 211.626 6.34277C213.581 6.34277 215.181 6.85207 216.426 7.87229L216.424 7.87067Z" fill="white"/>
<path d="M231.026 6.77285C231.895 7.13016 232.644 7.7009 233.272 8.48829C233.497 8.76962 233.95 8.62087 233.95 8.26194V7.16412C233.95 6.95717 234.12 6.78902 234.329 6.78902H238.419C238.628 6.78902 238.798 6.95717 238.798 7.16412V24.6565C238.798 27.0866 238.385 28.9184 237.56 30.1521C236.142 32.2717 233.422 33.3307 229.402 33.3307C226.973 33.3307 224.992 32.8586 223.459 31.9144C222.045 31.0429 221.213 29.777 220.965 28.1133C220.931 27.8869 221.108 27.6816 221.34 27.6816H226.032C226.197 27.6816 226.342 27.7883 226.391 27.9435C226.531 28.3849 226.734 28.7131 226.998 28.9265C227.533 29.376 228.433 29.6007 229.699 29.6007C231.488 29.6007 232.685 29.0074 233.29 27.8206C233.685 27.0607 233.882 25.7818 233.882 23.9855C233.882 23.6363 233.437 23.473 233.215 23.7462C232.936 24.089 232.647 24.3703 232.349 24.5902C231.361 25.3388 230.077 25.7139 228.497 25.7139C226.057 25.7139 224.108 24.8651 222.648 23.1658C221.19 21.4665 220.461 19.1658 220.461 16.262C220.461 13.3582 221.162 11.1108 222.566 9.20293C223.971 7.2967 225.96 6.34277 228.537 6.34277C229.49 6.34277 230.318 6.48667 231.026 6.77446V6.77285ZM232.717 20.2765C233.517 19.4067 233.915 18.0211 233.915 16.1213C233.915 14.3363 233.536 12.9766 232.778 12.0437C232.019 11.1108 231.005 10.6435 229.731 10.6435C227.996 10.6435 226.797 11.4552 226.138 13.0801C225.791 13.9434 225.618 15.0105 225.618 16.2765C225.618 17.3711 225.802 18.3444 226.172 19.1965C226.843 20.7858 228.046 21.5813 229.783 21.5813C230.94 21.5813 231.918 21.1464 232.716 20.2765H232.717Z" fill="white"/>
<path d="M67.5685 34.2636C69.6382 32.1666 72.2706 31.1189 75.4656 31.1189C79.742 31.1189 82.8685 32.5239 84.8469 35.3356C85.602 36.4269 86.1158 37.5231 86.3865 38.6193C86.5708 39.3647 86.0081 40.0874 85.2334 40.0874H82.1085C81.6013 40.0874 81.1544 39.7673 80.9864 39.2935C80.6896 38.4593 80.334 37.8028 79.923 37.3226C78.9673 36.2167 77.55 35.6638 75.6711 35.6638C73.7923 35.6638 72.2494 36.4447 71.1452 38.0049C70.0411 39.5652 69.4898 41.7754 69.4898 44.6323C69.4898 47.4892 70.072 49.6283 71.2382 51.0511C72.4027 52.4739 73.8836 53.1853 75.6793 53.1853C77.475 53.1853 78.9249 52.5757 79.8904 51.3534C80.3079 50.8393 80.67 50.1246 80.9766 49.2095C81.1381 48.7261 81.5915 48.3979 82.1052 48.3979H85.0768C85.8662 48.3979 86.4338 49.1464 86.2218 49.8983C85.6297 51.9985 84.5664 53.756 83.0284 55.1707C81.1365 56.9104 78.7145 57.7803 75.7608 57.7803C72.1042 57.7803 69.2305 56.6048 67.138 54.2556C65.0454 51.8934 64 48.6565 64 44.545C64 40.0987 65.1906 36.6711 67.5702 34.2636H67.5685Z" fill="white"/>
<path d="M105.087 54.7682C103.484 56.731 101.049 57.7124 97.7836 57.7124C94.5185 57.7124 92.0834 56.731 90.4802 54.7682C88.877 52.8054 88.0746 50.4432 88.0746 47.6817C88.0746 44.9202 88.877 42.6113 90.4802 40.621C92.0834 38.6291 94.5185 37.6348 97.7836 37.6348C101.049 37.6348 103.484 38.6307 105.087 40.621C106.69 42.613 107.493 44.9654 107.493 47.6817C107.493 50.3979 106.69 52.807 105.087 54.7682ZM101.112 52.0471C101.89 51.0237 102.28 49.5685 102.28 47.6817C102.28 45.7949 101.89 44.343 101.112 43.3244C100.334 42.3074 99.2189 41.7981 97.7657 41.7981C96.3125 41.7981 95.1953 42.3074 94.4108 43.3244C93.6263 44.343 93.2349 45.7949 93.2349 47.6817C93.2349 49.5685 93.6263 51.0237 94.4108 52.0471C95.1953 53.0705 96.3141 53.5831 97.7657 53.5831C99.2172 53.5831 100.334 53.0722 101.112 52.0471Z" fill="white"/>
<path d="M119.925 37.7964C119.925 37.7964 119.925 37.7964 119.927 37.7964C120.167 37.8174 120.353 38.0147 120.353 38.254V42.3639C120.353 42.6307 120.123 42.8425 119.854 42.8215C119.735 42.8118 119.622 42.8053 119.516 42.8005C119.273 42.7892 119.074 42.7827 118.924 42.7827C116.925 42.7827 115.584 43.4278 114.897 44.718C114.514 45.444 114.322 46.5612 114.322 48.0697V56.613C114.322 56.8668 114.114 57.0721 113.858 57.0721H109.781C109.525 57.0721 109.318 56.8668 109.318 56.613V38.6954C109.318 38.4415 109.525 38.2362 109.781 38.2362H113.597C113.853 38.2362 114.061 38.4415 114.061 38.6954V39.984C114.061 40.4286 114.636 40.6129 114.899 40.2524C115.326 39.6655 115.714 39.2289 116.067 38.946C116.996 38.1748 118.205 37.7883 119.692 37.7883C119.785 37.7883 119.864 37.7916 119.927 37.7964H119.925Z" fill="white"/>
<path d="M138.419 40.2588C139.968 41.8837 140.743 44.2669 140.743 47.4132C140.743 50.7309 139.986 53.2596 138.471 54.9993C136.956 56.739 135.007 57.6089 132.621 57.6089C131.101 57.6089 129.837 57.2338 128.831 56.4852C128.708 56.393 128.586 56.2912 128.464 56.1796C127.987 55.7415 127.216 56.06 127.216 56.7051V63.756C127.216 64.1586 126.886 64.4852 126.48 64.4852H123.037C122.631 64.4852 122.302 64.1586 122.302 63.756V38.9686C122.302 38.566 122.631 38.2394 123.037 38.2394H126.324C126.73 38.2394 127.059 38.566 127.059 38.9686C127.059 39.6185 127.842 39.9354 128.315 39.4843C128.467 39.3404 128.622 39.2062 128.778 39.085C129.889 38.2442 131.21 37.8239 132.743 37.8239C134.976 37.8239 136.868 38.6355 138.417 40.2604L138.419 40.2588ZM134.606 43.8012C133.931 42.684 132.836 42.1246 131.321 42.1246C129.501 42.1246 128.252 42.9718 127.57 44.6646C127.217 45.5636 127.041 46.7034 127.041 48.0858C127.041 50.275 127.633 51.8126 128.819 52.6986C129.524 53.2176 130.357 53.4763 131.319 53.4763C132.717 53.4763 133.782 52.946 134.516 51.887C135.25 50.8279 135.617 49.4165 135.617 47.6541C135.617 46.2022 135.279 44.9185 134.604 43.8012H134.606Z" fill="white"/>
<path d="M144.077 51.9048H147.024C147.668 51.9048 148.192 52.4222 148.192 53.0624V55.9145C148.192 56.5531 147.67 57.0721 147.024 57.0721H144.077C143.432 57.0721 142.909 56.5548 142.909 55.9145V53.0624C142.909 52.4238 143.431 51.9048 144.077 51.9048Z" fill="white"/>
<path d="M55.9866 52H8.30796C8.01142 52 7.73058 52.1097 7.53813 52.3018L4.24473 55.5808C3.68306 56.1386 4.15046 57 5.01456 57H55.9866C56.5463 57 57 56.6141 57 56.1405V52.8614C57 52.3859 56.5463 52.0018 55.9866 52.0018V52Z" fill="white"/>
<path d="M55.9947 42H17.2802C16.9855 42 16.7063 42.1098 16.515 42.302L13.2433 45.5798C12.685 46.138 13.1496 47 14.0085 47H55.9927C56.5491 47 57 46.6138 57 46.1398V42.862C57 42.3862 56.5491 42.0018 55.9927 42.0018L55.9947 42Z" fill="white"/>
<path d="M56.0019 33H26.2452C25.9531 33 25.6765 33.1097 25.4869 33.3016L22.2411 36.5814C21.6878 37.1389 22.1482 38 22.9993 38H56.0019C56.5532 38 57 37.6143 57 37.1408V33.8611C57 33.3857 56.5532 33.0018 56.0019 33.0018V33Z" fill="white"/>
<path d="M56.0169 23H35.1717C34.884 23 34.6116 23.1099 34.4249 23.3022L31.2374 26.5788C30.6925 27.1374 31.146 28 31.9843 28H56.0169C56.5599 28 57 27.6136 57 27.1392V23.8626C57 23.3864 56.5599 23.0018 56.0169 23.0018V23Z" fill="white"/>
<path d="M43.6531 15.6228L43.6535 15.6225C43.7283 15.559 43.871 15.5 44.0538 15.5H55.8716L55.8734 15.5015H56.0473C56.2174 15.5015 56.3505 15.5518 56.4286 15.6081C56.4667 15.6355 56.4856 15.6598 56.4938 15.6737C56.4977 15.6804 56.4991 15.6846 56.4996 15.6863C56.5 15.6877 56.5 15.6883 56.5 15.6886V18.3129L56.5 18.3132L56.4997 18.3145C56.4992 18.316 56.4978 18.3202 56.4939 18.327C56.4856 18.341 56.4665 18.3654 56.4283 18.393C56.35 18.4496 56.2168 18.5 56.0473 18.5H40.9538C40.6794 18.5 40.5452 18.3849 40.5108 18.331C40.5035 18.3196 40.501 18.3124 40.5002 18.309C40.5031 18.3016 40.5143 18.2799 40.5527 18.2475L40.5531 18.2471L43.6531 15.6228ZM40.5 18.3065C40.5 18.3065 40.5001 18.3071 40.5001 18.3081C40.4999 18.307 40.4999 18.3065 40.5 18.3065ZM40.4998 18.3102C40.4996 18.3112 40.4995 18.3118 40.4994 18.3117L40.4998 18.3102Z" fill="white" stroke="white"/>
<path d="M55.9163 8H51.6132C51.2961 8 50.9957 8.08769 50.7899 8.24114L47.2617 10.8659C46.6611 11.3117 47.1609 12 48.085 12H55.9163C56.5149 12 57 11.6916 57 11.3131V8.68834C57 8.30837 56.5149 8.00146 55.9163 8.00146V8Z" fill="white"/>
<path d="M53.4897 5H56.5088C56.7789 5 57 4.81666 57 4.58846V1.41123C57 1.02309 56.4157 0.851458 56.1271 1.15572L53.1079 4.33296C52.8519 4.60211 53.08 5 53.492 5H53.4897Z" fill="white"/>
</g>
<defs>
<filter id="filter0_d_1521_156" x="0" y="0" width="242.798" height="72.4852" filterUnits="userSpaceOnUse" color-interpolation-filters="sRGB">
<feFlood flood-opacity="0" result="BackgroundImageFix"/>
<feColorMatrix in="SourceAlpha" type="matrix" values="0 0 0 0 0 0 0 0 0 0 0 0 0 0 0 0 0 0 127 0" result="hardAlpha"/>
<feOffset dy="4"/>
<feGaussianBlur stdDeviation="2"/>
<feComposite in2="hardAlpha" operator="out"/>
<feColorMatrix type="matrix" values="0 0 0 0 0 0 0 0 0 0 0 0 0 0 0 0 0 0 0.25 0"/>
<feBlend mode="normal" in2="BackgroundImageFix" result="effect1_dropShadow_1521_156"/>
<feBlend mode="normal" in="SourceGraphic" in2="effect1_dropShadow_1521_156" result="shape"/>
</filter>
</defs>
</svg>
