<svg width="512" height="148" viewBox="0 0 512 148" fill="none" xmlns="http://www.w3.org/2000/svg">
<path d="M511.625 49.5115C507.246 50.1469 502.866 50.7787 498.486 51.4179C492.012 52.3599 485.53 53.272 479.06 54.2589C468.67 55.8439 458.281 57.4288 447.903 59.096C431.991 61.6529 416.109 64.3892 400.185 66.8489C378.174 70.2506 356.148 73.5327 334.102 76.7176C328.688 77.4988 323.203 77.8764 317.733 78.1268C314.646 78.2689 311.473 78.0708 308.442 77.4951C303.781 76.6092 302.012 73.3906 303.661 68.9572C304.669 66.2508 306.201 63.7351 307.509 61.1371C308.056 60.053 308.629 58.9839 309.187 57.911C309.094 57.8213 308.996 57.7279 308.902 57.6382C308.183 58.0045 307.441 58.3335 306.752 58.7484C302.338 61.395 298.442 64.6957 294.755 68.2507C293.661 69.3049 292.657 70.4487 291.526 71.458C291.147 71.7982 290.507 71.843 289.986 72.0225C289.937 71.4468 289.652 70.744 289.877 70.3104C291.297 67.5928 292.826 64.9312 294.324 62.2547C294.527 61.8922 294.748 61.537 294.778 61.0249C293.493 62.1949 292.189 63.35 290.922 64.5425C288.828 66.5125 286.779 68.5311 284.669 70.4861C283.942 71.1627 283.152 71.8057 282.29 72.2879C281.803 72.5608 280.915 72.7327 280.574 72.4711C280.222 72.2019 280.188 71.3421 280.244 70.7665C280.308 70.1534 280.597 69.5441 280.866 68.9684C281.949 66.6583 283.066 64.3631 284.163 62.0604C284.414 61.537 284.639 60.9987 284.643 60.2848C283.395 61.309 282.125 62.3071 280.9 63.3575C277.749 66.0639 274.669 68.86 271.451 71.4842C269.949 72.7066 268.281 73.8056 266.528 74.6242C263.962 75.8242 262.178 74.5495 262.425 71.7384C262.568 70.1347 262.999 68.5161 263.557 66.9984C264.651 64.0154 265.925 61.0959 266.974 58.0082C266.569 58.4493 266.153 58.883 265.756 59.3315C262.59 62.9276 259.499 66.591 256.24 70.1011C254.674 71.787 252.857 73.2561 251.039 74.6766C250.05 75.4466 248.762 76.2092 247.521 75.2672C246.33 74.3588 246.768 72.9832 247.158 71.8244C247.851 69.7534 248.687 67.7311 249.582 65.3724C248.136 67.2713 246.884 68.9236 245.622 70.5758C243.898 72.8262 242.182 75.0803 240.44 77.3157C240.002 77.8801 239.507 78.4109 238.987 78.9044C237.72 80.1043 236.971 80.0856 235.753 78.8371C233.947 81.0202 232.153 83.207 230.336 85.3713C221.52 95.8643 211.928 105.561 200.722 113.534C197.511 115.818 194.057 117.788 190.584 119.654C188.969 120.521 187.069 121.048 185.237 121.287C181.689 121.755 179.351 119.99 178.456 116.502C177.718 113.628 177.886 110.723 178.284 107.826C179.542 98.6567 182.723 90.0627 186.241 81.5771C190.936 70.2469 196.623 59.41 202.899 48.876C203.124 48.4984 203.337 48.1171 203.615 47.6312C203.289 47.5153 203.015 47.3882 202.73 47.3247C199.602 46.6593 196.47 46.0201 193.345 45.3285C192.633 45.1715 192.345 45.3883 192.135 46.0462C189.523 54.2925 186.833 62.5127 184.308 70.7852C183.697 72.7851 183.649 74.9494 183.278 77.0278C183.132 77.8465 182.899 78.6689 182.555 79.4202C182.397 79.7604 181.873 79.9361 181.513 80.1828C181.311 79.7978 180.899 79.3791 180.944 79.0277C181.153 77.4914 181.322 75.9139 181.832 74.4597C183.259 70.3889 182.671 66.4302 181.423 62.494C180.142 58.4568 178.04 54.8645 175.159 51.5413C172.158 53.586 169.19 55.5897 166.246 57.6344C165.942 57.8475 165.747 58.2512 165.564 58.5989C163.091 63.3799 159.858 67.6264 156.362 71.6935C156.205 71.8767 156.066 72.1122 155.867 72.2057C155.193 72.5271 154.369 73.1776 153.837 72.9981C152.803 72.6542 152.968 71.4618 153.309 70.7141C154.193 68.7703 154.972 66.6545 156.343 65.0845C158.666 62.4267 161.368 60.0866 164.001 57.7129C164.972 56.8419 165.384 55.8513 165.635 54.4047C165.002 54.8607 164.522 55.1374 164.125 55.5C159.88 59.3801 155.661 63.2827 151.409 67.1517C150.053 68.3853 148.644 69.5665 147.201 70.6917C146.55 71.2001 145.796 71.6113 144.875 71.073C144.699 70.9683 144.197 71.2823 143.923 71.5029C141.435 73.5065 139.008 75.5887 136.467 77.5175C135.471 78.2764 134.272 78.8446 133.08 79.2632C130.9 80.0295 129.589 78.852 130.259 76.6465C130.892 74.5607 131.829 72.5608 132.687 70.5459C133.335 69.0208 134.073 67.533 134.774 66.0265C134.676 65.9518 134.583 65.8807 134.485 65.806C134.096 66.1574 133.71 66.5125 133.316 66.8601C129.918 69.9142 127.633 73.8429 124.965 77.4689C124.208 78.4969 123.504 79.5698 122.698 80.5566C122.447 80.8632 121.934 80.9566 121.545 81.1473C121.537 80.6875 121.342 80.0968 121.556 79.7828C123.126 77.4764 124.714 75.1737 126.415 72.9645C128.618 70.1011 130.656 67.1629 131.747 63.679C131.934 63.0846 132.024 62.4641 132.159 61.8548C132.065 61.7875 131.971 61.7202 131.878 61.6529C131.398 62.0267 130.821 62.3258 130.45 62.7856C127.854 66.0153 125.085 69.1329 122.781 72.5608C118.607 78.7623 114.28 84.8256 109.286 90.3991C108.727 91.0234 108.192 91.685 107.547 92.2046C107.24 92.4514 106.693 92.4028 106.255 92.4887C106.183 92.0514 106.015 91.6028 106.067 91.1767C106.116 90.758 106.374 90.3617 106.558 89.9655C110.203 82.0145 114.452 74.3887 119.225 67.0545C119.787 66.191 120.304 65.3051 121.027 64.1313C120.274 64.3743 119.847 64.5537 119.401 64.6472C118.472 64.8415 117.524 65.1368 116.595 65.1107C115.404 65.077 114.456 65.4023 113.733 66.2994C112.658 67.6339 111.53 68.9423 110.612 70.3814C108.525 73.6411 106.648 77.0316 104.509 80.2538C102.437 83.3714 100.207 86.3918 97.9145 89.3562C97.1015 90.4066 95.9738 91.2551 94.8685 92.0177C94.4039 92.3392 93.4298 92.4626 93.0289 92.1859C92.628 91.9093 92.4707 90.9972 92.5418 90.4029C92.6355 89.5954 92.954 88.773 93.3399 88.0441C95.3031 84.3471 97.3188 80.68 99.3232 77.0054C99.7429 76.2391 100.181 75.484 100.492 74.5981C100.309 74.7551 100.121 74.9046 99.9414 75.0691C95.7527 78.8894 91.5602 82.7061 87.3715 86.5264C87.3115 86.5788 87.2478 86.6273 87.1804 86.6722C86.3711 87.2068 85.5394 88.1974 84.5428 87.3675C83.6174 86.5974 84.1981 85.5059 84.5727 84.5938C84.8762 83.8611 85.3033 83.1808 85.5694 82.3173C85.2434 82.5902 84.9137 82.8556 84.5915 83.1359C65.1015 99.9276 45.6415 116.753 26.099 133.481C22.0077 136.984 17.6316 140.161 13.3455 143.432C12.1428 144.348 10.809 145.103 9.50145 145.869C8.74838 146.314 7.94285 146.688 7.12608 147.006C3.03476 148.598 0.408369 147.006 0.385889 142.61C0.374649 140.18 0.820498 137.679 1.47616 135.328C3.40942 128.371 7.1111 122.241 11.0188 116.248C16.5938 107.707 23.0718 99.8528 29.8082 92.2084C30.1117 91.8607 30.4114 91.5093 30.7411 91.1281C30.5351 91.0383 30.4639 90.9785 30.4002 90.986C27.2305 91.4346 24.6341 89.8234 24.6678 85.5059C24.6866 83.0836 25.2148 80.5903 25.9567 78.2689C27.785 72.5533 31.0071 67.5405 34.484 62.6921C42.0222 52.1805 51.1228 43.1155 60.8566 34.6599C68.7057 27.8378 76.8996 21.4568 85.9815 16.3132C90.5486 13.7264 95.2581 11.4573 100.526 10.6162C100.646 10.5976 100.762 10.5714 100.882 10.5564C106.251 9.83497 109.091 12.7395 108.218 18.0551C107.326 23.5165 104.861 28.32 101.957 32.9403C101.493 33.6768 100.983 34.387 100.271 35.0038C100.623 34.3122 100.957 33.6132 101.324 32.9366C103.744 28.477 106.048 23.9651 106.985 18.9186C107.199 17.7561 107.296 16.5374 107.202 15.3637C107.03 13.2479 105.711 11.8087 103.587 11.7526C101.702 11.7003 99.7429 11.9022 97.9183 12.3844C92.4894 13.8161 87.5738 16.4477 82.9355 19.5167C64.1161 31.9722 47.4923 46.7789 34.3754 65.249C31.1982 69.7235 28.4519 74.4672 26.927 79.7716C26.3538 81.7678 26.0841 83.9209 26.1103 85.9993C26.1477 88.8515 27.9162 90.0253 30.7149 89.4721C32.0112 89.2141 33.0565 88.6534 33.9745 87.6479C40.7559 80.2015 47.7883 72.9981 55.5888 66.6022C58.2339 64.4341 61.1413 62.5688 64.0075 60.6922C64.9479 60.0792 66.1206 59.6979 67.2371 59.5184C67.9152 59.41 69.0055 59.668 69.3314 60.1502C69.7061 60.7072 69.7211 61.8323 69.3989 62.4603C68.8107 63.608 67.9864 64.707 67.0348 65.5817C64.1199 68.2507 61.1675 70.8898 58.1028 73.3832C51.9358 78.4035 45.6415 83.2593 38.8189 87.3899C38.1033 87.8235 37.4026 88.3319 36.6271 88.6235C34.2929 89.5094 32.6669 91.2066 31.0783 93.0308C22.8657 102.47 14.9378 112.114 8.65471 122.988C5.85223 127.84 3.31576 132.819 2.21425 138.363C1.88454 140.023 1.77964 141.78 1.92576 143.462C2.13557 145.865 3.4881 146.714 5.76231 145.884C7.50824 145.245 9.24668 144.419 10.7678 143.361C14.2035 140.961 17.6391 138.524 20.835 135.825C38.2569 121.104 55.6 106.286 72.9919 91.528C78.3833 86.9526 83.8609 82.4818 89.2598 77.9175C92.0773 75.5363 94.7973 73.0393 97.596 70.6356C98.469 69.8843 99.4057 69.0955 100.702 69.4544C101.02 69.5404 101.26 69.9067 101.474 70.3665C99.327 70.1422 98.0569 71.4842 96.7418 72.5907C92.8191 75.884 89.0687 79.3604 86.2363 83.678C85.6967 84.5004 85.3858 85.4685 84.9699 86.3694C85.0935 86.4517 85.2134 86.5302 85.3371 86.6124C85.7492 86.332 86.2025 86.0928 86.5735 85.7638C90.4662 82.2687 94.4376 78.8558 98.1918 75.2186C99.9789 73.4841 101.328 71.3085 102.913 69.3609C103.175 69.0395 103.624 68.8638 103.984 68.6245C104.055 69.0881 104.332 69.645 104.168 69.9964C102.946 72.5907 101.676 75.1662 100.339 77.7044C98.3716 81.4426 96.3259 85.1433 94.3552 88.8777C94.0143 89.5244 93.8569 90.272 93.6134 90.9711C93.6958 91.0421 93.7745 91.1094 93.8569 91.1804C94.2653 90.9337 94.7561 90.7617 95.0708 90.4253C96.4121 89.0085 97.892 87.6703 98.9786 86.0741C101.755 81.9846 104.325 77.7568 107.03 73.6187C108.709 71.0506 110.436 68.5124 112.242 66.034C113.354 64.5088 114.834 63.7313 116.899 63.9107C118.023 64.0079 119.195 63.3463 120.368 63.1332C120.941 63.0285 121.556 63.1594 122.151 63.1818C122.062 63.7836 122.144 64.4789 121.859 64.9649C120.125 67.9218 118.203 70.7739 116.539 73.7719C113.789 78.7175 111.185 83.7452 108.521 88.7431C108.413 88.9487 108.338 89.173 108.117 89.7001C108.574 89.244 108.813 89.0235 109.031 88.7842C114.684 82.5976 119.105 75.5064 123.927 68.703C125.67 66.2433 127.768 64.0229 129.791 61.7688C130.51 60.9688 131.473 59.9558 132.672 60.7184C133.863 61.4772 133.245 62.7332 132.979 63.7874C132.796 64.5126 132.507 65.2116 132.177 66.1835C132.927 65.5705 133.436 65.0284 134.058 64.6845C134.497 64.4416 135.231 64.236 135.561 64.4416C135.879 64.6397 136.07 65.4695 135.928 65.892C135.385 67.5106 134.695 69.0806 134.04 70.6581C133.219 72.6468 132.35 74.613 131.571 76.6166C131.402 77.0503 131.533 77.6035 131.526 78.1007C132.02 78.0745 132.601 78.2128 132.994 77.9997C134.497 77.1848 135.98 76.3176 137.389 75.3569C138.476 74.6167 139.431 73.6897 140.461 72.871C142.915 70.916 144.916 68.703 146.269 65.7499C147.355 63.3725 149.262 61.3651 150.806 59.197C150.896 59.0699 151.031 58.9727 151.15 58.8643C151.791 58.2923 152.529 57.6157 153.361 58.2325C154.268 58.9091 153.822 59.9109 153.309 60.5913C151.379 63.1257 149.367 65.6004 147.366 68.0788C146.92 68.6283 146.4 69.118 145.916 69.6376C145.976 69.7198 146.036 69.8058 146.092 69.888C146.591 69.574 147.153 69.3235 147.58 68.931C149.835 66.8414 152.035 64.692 154.294 62.6099C157.231 59.9072 160.202 57.2382 163.177 54.5729C163.679 54.1243 164.241 53.7169 164.833 53.3991C166.178 52.6777 166.984 53.1935 166.984 54.7187C166.984 54.9019 166.984 55.0888 166.984 55.4551C169.468 53.8066 171.813 52.244 174.305 50.5918C173.866 50.117 173.518 49.7059 173.136 49.3246C171.543 47.7545 169.906 46.2294 168.359 44.6145C167.092 43.295 167.482 42.0427 169.269 41.6726C170.318 41.4558 171.42 41.3175 172.484 41.3773C176.036 41.5754 179.584 41.8446 183.124 42.1698C183.896 42.2408 184.391 42.0875 184.896 41.5268C189.977 35.9009 194.315 29.7405 198.137 23.225C199.111 21.5652 199.538 19.5915 200.269 17.7822C202.183 13.0572 204.094 8.32851 206.08 3.63342C206.507 2.62039 207.185 1.69333 207.863 0.81487C208.092 0.519558 208.762 0.284056 209.081 0.407414C209.399 0.530773 209.752 1.17373 209.695 1.52511C209.471 2.88953 209.306 4.33245 208.725 5.55856C206.451 10.3882 204.008 15.1356 201.674 19.9391C200.647 22.0474 199.576 24.1483 198.793 26.35C196.886 31.7217 195.136 37.1457 193.326 42.5511C193.214 42.8875 193.128 43.2314 193 43.6725C193.39 43.7809 193.72 43.8856 194.057 43.9641C197.099 44.6519 200.153 45.2911 203.18 46.0387C204.098 46.2668 204.574 46.1434 205.094 45.2911C209.969 37.3214 214.974 29.4415 220.943 22.2194C224.51 17.9019 228.249 13.7413 232.865 10.4929C234.228 9.53219 235.697 8.66868 237.226 8.01077C240.83 6.45944 243.943 7.27062 246.465 10.2873C248.743 13.0086 249.979 16.1973 250.234 19.6924C250.833 27.8939 248.649 35.3963 244.176 42.2558C242.838 44.3117 240.931 45.7285 238.436 46.835C238.758 46.3004 238.897 45.7846 239.234 45.5491C244.071 42.166 246.068 37.0448 247.656 31.7292C248.956 27.3817 249.608 22.9296 248.739 18.3841C248.214 15.6328 247.154 13.1171 245.285 10.9938C243.16 8.58644 240.819 8.0332 237.833 9.23314C234.817 10.448 232.314 12.4479 229.957 14.616C224.041 20.055 219.144 26.3612 214.671 32.9889C211.838 37.1869 209.175 41.5007 206.44 45.7659C206.275 46.0238 206.155 46.3079 205.979 46.6518C208.47 47.4368 210.879 48.1994 213.288 48.9582C213.266 49.1078 213.243 49.2573 213.221 49.4068C212.528 49.332 211.823 49.3021 211.142 49.1713C209.414 48.8386 207.706 48.4162 205.971 48.1321C205.589 48.0686 204.93 48.3041 204.746 48.6106C195.301 64.4939 186.931 80.8744 181.727 98.6903C180.385 103.288 179.34 107.972 179.494 112.809C179.539 114.222 179.797 115.673 180.232 117.022C180.887 119.059 182.585 120.199 184.694 119.822C186.713 119.459 188.759 118.872 190.599 117.987C196.661 115.078 201.936 110.978 207.084 106.72C217.638 97.995 226.728 87.8796 235.18 77.1699C235.536 76.7176 235.787 76.1344 235.929 75.5737C237.563 69.0806 241.13 63.8061 246.184 59.5035C247.094 58.7297 248.293 58.2101 249.443 57.8251C250.612 57.4363 251.778 57.9522 252.066 59.096C252.392 60.3932 252.564 61.8622 252.28 63.1444C251.961 64.5836 251.013 65.8733 250.425 67.2638C249.638 69.1292 248.896 71.0207 248.218 72.9308C248.083 73.3121 248.301 73.8243 248.357 74.2766C248.776 74.2168 249.256 74.2691 249.601 74.0747C250.432 73.6112 251.313 73.1402 251.976 72.4785C254.486 69.9702 256.963 67.4208 259.364 64.8116C261.661 62.3146 263.834 59.7016 266.108 57.1821C266.689 56.5392 267.375 55.4626 268.364 56.0719C269.357 56.6849 268.671 57.7653 268.356 58.5652C267.187 61.5296 265.869 64.4378 264.748 67.4208C264.209 68.86 263.834 70.4001 263.654 71.929C263.452 73.6187 264.419 74.3364 265.932 73.5775C267.667 72.7066 269.364 71.6711 270.859 70.4413C274.774 67.219 278.562 63.8397 282.421 60.5464C283.178 59.8997 283.984 59.2904 284.842 58.7932C285.179 58.5989 285.823 58.5989 286.142 58.8007C286.381 58.9502 286.479 59.6156 286.366 59.967C286.04 60.9875 285.617 61.9819 285.164 62.9575C284.103 65.234 282.994 67.4881 281.923 69.7609C281.713 70.2057 281.582 70.6917 281.417 71.159C281.503 71.2188 281.593 71.2823 281.679 71.3421C282.567 70.6169 283.493 69.9329 284.332 69.1591C287.771 65.9929 291.177 62.7968 294.609 59.6268C295.077 59.1932 295.576 58.7671 296.13 58.4755C296.46 58.3035 297.086 58.2363 297.295 58.4269C297.524 58.6362 297.573 59.253 297.445 59.6007C297.198 60.2623 296.782 60.8679 296.411 61.481C295.13 63.5967 293.833 65.7013 292.552 67.8171C292.357 68.1423 292.211 68.4974 292.159 68.9161C293.819 67.3872 295.392 65.7499 297.161 64.3593C300.233 61.9445 303.41 59.6605 306.587 57.3802C307.25 56.9017 308.071 56.5765 308.865 56.3635C309.989 56.0644 310.712 56.7148 310.506 57.855C310.352 58.6998 310.015 59.5371 309.622 60.3109C308.397 62.7295 307.037 65.0808 305.871 67.5255C305.317 68.6955 304.935 69.9964 304.744 71.2749C304.448 73.2523 305.223 74.6803 307.127 75.3382C308.839 75.9288 310.678 76.3512 312.484 76.4522C319.303 76.8297 326.092 76.1494 332.813 75.1662C360.194 71.1702 387.556 67.0358 414.921 62.9351C432.043 60.3707 449.158 57.7428 466.284 55.2084C475.763 53.8066 485.257 52.5169 494.75 51.2198C500.367 50.4497 505.994 49.7619 511.618 49.0367V49.5152L511.625 49.5115ZM190.943 44.9098C189.014 44.6108 187.174 44.2706 185.323 44.0762C184.821 44.0239 184.17 44.2706 183.765 44.5996C181.509 46.4387 179.314 48.3414 177.096 50.2255C176.867 50.4198 176.654 50.6254 176.616 50.6553C178.19 53.3094 179.898 55.7392 181.127 58.3895C182.345 61.0137 183.083 63.8621 183.982 66.4639C186.238 59.4773 188.564 52.2665 190.94 44.9098H190.943ZM36.9718 86.119C37.0917 86.2573 37.2153 86.3993 37.3352 86.5376C37.7061 86.3283 38.092 86.1377 38.4442 85.9022C41.198 84.0593 44.0604 82.3547 46.6681 80.3249C52.7751 75.57 58.7847 70.688 64.7643 65.7798C65.9782 64.7817 66.9299 63.4547 67.934 62.2211C68.1588 61.9445 68.0801 61.4249 68.1438 61.0137C67.7616 61.0062 67.312 60.8604 67.0048 61.01C65.2551 61.866 63.3631 62.565 61.8457 63.7351C57.8405 66.8302 53.8766 70.0039 50.1337 73.4056C45.619 77.5063 41.3478 81.8687 36.9718 86.119ZM182.615 43.994C182.57 43.8781 182.521 43.7585 182.476 43.6426C178.13 43.194 173.788 42.5698 169.277 43.1791C171.551 45.3621 173.66 47.3882 175.919 49.5601C177.98 47.848 180.299 45.9229 182.618 43.994H182.615ZM236.975 78.3063C237.154 78.3923 237.334 78.4745 237.514 78.5605C238.162 77.8801 238.867 77.2409 239.447 76.5082C243.351 71.5664 247.255 66.6209 251.073 61.6118C251.392 61.1931 251.257 60.2175 250.998 59.6567C250.833 59.3016 249.964 58.9839 249.545 59.1072C248.915 59.2942 248.136 59.7652 247.892 60.3184C247.139 62.023 246.607 63.8285 245.993 65.5966C245.899 65.5667 245.805 65.5368 245.712 65.5069C245.764 65.1331 245.817 64.763 245.839 64.6023C243.1 68.5049 240.272 72.5047 237.499 76.5419C237.169 77.0241 237.143 77.7119 236.978 78.3063H236.975ZM191.52 43.4557C193.169 38.5363 194.772 33.759 196.414 28.8546C192.91 33.4861 189.516 37.9756 186.065 42.5324C187.815 42.8277 189.598 43.1305 191.52 43.4557ZM162.922 60.3483C159.284 63.3949 155.796 66.5536 154.597 71.4206C157.808 68.0601 160.614 64.393 162.922 60.3483ZM238.181 72.7365C238.301 72.8037 238.421 72.8748 238.541 72.9421C240.864 69.417 243.183 65.8882 245.506 62.3632C245.397 62.2921 245.288 62.2211 245.18 62.1501C242.149 65.2228 239.811 68.7479 238.181 72.7365ZM203.064 13.932C203.169 13.988 203.274 14.0441 203.382 14.1002C205.124 10.6611 206.837 7.21081 208.058 3.54744C207.912 3.48389 207.766 3.42035 207.62 3.36054C206.102 6.88559 204.585 10.4069 203.068 13.932H203.064ZM152.282 60.0979C152.128 59.9857 151.978 59.8773 151.825 59.7652C150.521 61.5445 149.221 63.3239 147.917 65.0995C148.041 65.1892 148.161 65.2789 148.284 65.3686C149.618 63.6117 150.952 61.8548 152.282 60.0979Z" fill="black" stroke="black" stroke-width="2" stroke-miterlimit="10"/>
<path d="M271.193 43.1716C270.503 41.6614 271.44 40.5362 272.163 39.4185C272.935 38.2223 273.826 37.0971 275.565 36.5962C273.999 38.9475 272.635 40.9997 271.193 43.1716Z" fill="black" stroke="black" stroke-width="2" stroke-miterlimit="10"/>
</svg>
